<mxfile host="app.diagrams.net" modified="2024-02-06T01:53:53.665Z" agent="Mozilla/5.0 (X11; Ubuntu; Linux x86_64; rv:109.0) Gecko/20100101 Firefox/113.0" version="23.1.1" etag="hps-vpBxHiFYAEEmDbOW" type="github">
  <diagram name="Page-1" id="v3dpS_OFj6nwQXq7DWlG">
    <mxGraphModel>
      <root>
        <mxCell id="0" />
        <mxCell id="1" parent="0" />
      </root>
    </mxGraphModel>
  </diagram>
</mxfile>
